# xmcd
#
# Track frame offsets:
#	150
#	4197
#	20850
#	57525
#	80325
#	94125
#	122625
#	136112
#	154725
#	179832
#	206775
#	218175
#
# Disc length: 3038
#
# Revision: 2
# Processed by: cddbd v1.5.1PL0 Copyright (c) Steve Scherf et al.
# Submitted via: DiscPlay 4.0.3
# Normalized: r1:DSETVAR1,TDELIM( - )
#
DISCID=ad0bdc0c
DTITLE=Various Artist - The Ultimate Blues Collection Volume Two, Disk 2
DYEAR=1900
DGENRE=
TTITLE0=John Lee Hooker - Introduction
TTITLE1=John Lee Hooker - Goin' To California
TTITLE2=John Lee Hooker - Black Night Is Falling
TTITLE3=John Lee Hooker - Crawlin' Kingsnake
TTITLE4=John Cephas - Richmond Blues
TTITLE5=John Cephas - St. James Infirmary
TTITLE6=Louisiana Red - Louisiana Boogie
TTITLE7=Louisiana Red - When My Mama Was Livin'
TTITLE8=Louisiana Red - Got Sad News
TTITLE9=Louisiana Red - Stop Doggin' Me Around
TTITLE10=Sam Chatmon - I Gets The Blues When It Rains
TTITLE11=Sam Chatmon - St. Louis Blues
EXTD=
EXTT0=
EXTT1=
EXTT2=
EXTT3=
EXTT4=
EXTT5=
EXTT6=
EXTT7=
EXTT8=
EXTT9=
EXTT10=
EXTT11=
PLAYORDER=
